/* XPM */
static char * alias_manager_xpm[] = {
"32 32 181 2",
"  	c None",
". 	c #838983",
"+ 	c #9A9894",
"@ 	c #9B9C99",
"# 	c #A29E96",
"$ 	c #989794",
"% 	c #939592",
"& 	c #8C8D8A",
"* 	c #8D8982",
"= 	c #838682",
"- 	c #86827B",
"; 	c #807E7A",
"> 	c #7D7A74",
", 	c #787672",
"' 	c #726F6A",
") 	c #393D39",
"! 	c #000000",
"~ 	c #D6D7D6",
"{ 	c #DDDAD2",
"] 	c #E2DFD8",
"^ 	c #E6E3DC",
"/ 	c #D9D6CE",
"( 	c #D5D2CC",
"_ 	c #D2CEC6",
": 	c #CDC9C3",
"< 	c #C8C4BC",
"[ 	c #C1BDB5",
"} 	c #B9B7B2",
"| 	c #B1AEA8",
"1 	c #B0ADA6",
"2 	c #A9A59D",
"3 	c #595751",
"4 	c #D0CFCB",
"5 	c #C5C2BC",
"6 	c #B4B1AB",
"7 	c #B2B5B2",
"8 	c #ACAEAC",
"9 	c #A7A9A7",
"0 	c #A5A29B",
"a 	c #95928A",
"b 	c #89857B",
"c 	c #9D998F",
"d 	c #99968C",
"e 	c #524F48",
"f 	c #1E0A2E",
"g 	c #2A113F",
"h 	c #2F1444",
"i 	c #2C123E",
"j 	c #270F39",
"k 	c #1A0828",
"l 	c #220B33",
"m 	c #A2568A",
"n 	c #AF5994",
"o 	c #AF5D95",
"p 	c #B95791",
"q 	c #A8588F",
"r 	c #9B5585",
"s 	c #8E5283",
"t 	c #824E7F",
"u 	c #744878",
"v 	c #603A6C",
"w 	c #573167",
"x 	c #502D63",
"y 	c #4B295F",
"z 	c #442258",
"A 	c #402056",
"B 	c #361A4E",
"C 	c #4E4B43",
"D 	c #CECCC8",
"E 	c #321749",
"F 	c #C96DB7",
"G 	c #D67AD1",
"H 	c #D175C7",
"I 	c #C167AB",
"J 	c #865080",
"K 	c #663E70",
"L 	c #5B3569",
"M 	c #391D51",
"N 	c #918D84",
"O 	c #494742",
"P 	c #C9C7C3",
"Q 	c #75736D",
"R 	c #C765AC",
"S 	c #BB65A4",
"T 	c #6F4375",
"U 	c #47265C",
"V 	c #8D887F",
"W 	c #935383",
"X 	c #7A4B7B",
"Y 	c #45423C",
"Z 	c #686E68",
"` 	c #858175",
" .	c #79756B",
"..	c #6D6A63",
"+.	c #9C4E81",
"@.	c #FFFFFF",
"#.	c #F8F5F7",
"$.	c #E7D6E2",
"%.	c #B97AA5",
"&.	c #F9F7F9",
"*.	c #E7DEE7",
"=.	c #EDE7ED",
"-.	c #FAF9FA",
";.	c #EAE6EC",
">.	c #7B658A",
",.	c #827D74",
"'.	c #726D63",
").	c #413E37",
"!.	c #BBB7AE",
"~.	c #605E58",
"{.	c #A26C95",
"].	c #EFE2EB",
"^.	c #CA9ABB",
"/.	c #AC749B",
"(.	c #AE92AF",
"_.	c #805F88",
":.	c #E9E6EC",
"<.	c #3C3A34",
"[.	c #947398",
"}.	c #E0D7E2",
"|.	c #F8F6F8",
"1.	c #FDFCFD",
"2.	c #AA5D92",
"3.	c #9B5685",
"4.	c #7E517F",
"5.	c #757166",
"6.	c #6A665B",
"7.	c #323532",
"8.	c #ADAAA3",
"9.	c #F3EBF1",
"0.	c #AE779D",
"a.	c #905686",
"b.	c #656155",
"c.	c #33312C",
"d.	c #A6A197",
"e.	c #F6EFF4",
"f.	c #FDBDFC",
"g.	c #EDB2F1",
"h.	c #230D35",
"i.	c #6D685E",
"j.	c #625E53",
"k.	c #2E312E",
"l.	c #56524A",
"m.	c #361749",
"n.	c #977C9E",
"o.	c #F3EDF1",
"p.	c #170624",
"q.	c #545A54",
"r.	c #2B2D2A",
"s.	c #DD7DDC",
"t.	c #FE8CFD",
"u.	c #CD73C1",
"v.	c #545147",
"w.	c #4A4E49",
"x.	c #EA7CFA",
"y.	c #E37EEA",
"z.	c #E87DF1",
"A.	c #1A0727",
"B.	c #4B483E",
"C.	c #2A2925",
"D.	c #683B6F",
"E.	c #230C34",
"F.	c #21211E",
"G.	c #514E45",
"H.	c #2A103A",
"I.	c #807B6F",
"J.	c #686456",
"K.	c #5C594E",
"L.	c #5A564C",
"M.	c #6D736D",
"N.	c #49463D",
"O.	c #5E5B52",
"P.	c #66635C",
"Q.	c #0D0D0C",
"R.	c #1C1D1A",
"S.	c #201F1D",
"T.	c #242522",
"U.	c #262926",
"V.	c #191917",
"W.	c #181715",
"X.	c #151514",
"                                                                ",
"                                                                ",
"                                                                ",
"    . + @ @ @ + @ @ @ # @ $ $ $ $ % % & * = - ; > , , ' ) !     ",
"    ~ { ] ^ ^ ^ ^ ^ ^ ^ ^ ^ ] { { / ( _ : < [ } | 1 2 # 3 !     ",
"    4 / 5 | 6 6 7 6 6 6 8 | 9 9 2 0 # # + a & * b - c d e !     ",
"    4 { ; f g g g h h h h h h h h i g g j j f f k l a a e !     ",
"    4 { , g m n o p o q r s t u v w x y z A B h j f a * C ! !   ",
"    D ~ , E F G G H F I o q J u K v L w x y M E g f N b O ! !   ",
"    P _ Q B F H F R S o q s t u u T K v L y U M g f V - O ! !   ",
"    P : ' B I I S o n q W s J J t X u T K L y M h f b > Y !     ",
"    5 < Z M n n q m m r q W q W s J t X T L y M h f `  .) ! !   ",
"    [ [ ..M +.@.@.#.$.%.q n @.@.@.@.&.*.=.-.;.>.h f ,.'.).! !   ",
"    } !.~.M t t t {.@.].o o @.@.^./.@.@.(._.@.:.h f  ...<.! !   ",
"    7 | ~.B [.}.|.@.@.1.q o @.@.2.3.@.@.4.K @.@.h f 5.6.7.! !   ",
"    | 8.~.B 9.@.0.a.@.@.n n @.@.q q @.@.X K @.@.E f '.b.c.! !   ",
"    8.d.3 E e.@.f.g.@.@.q q @.@.r q @.@.u v @.@.g h.i.j.k.! !   ",
"    0 c l.m.n.o.@.@.@.@.W r @.@.s J @.@.K L @.@.g p.6.q.r.! !   ",
"    + a e h t s.t.t.u.W t t J t u u u v w U U B g h.j.v.r.! !   ",
"    a * w.g m x.q u K T W y.x.z.S u L x U U E E g A.j.B.C.! !   ",
"    * - O g x x y w L L D.X X T v y U U E E g E.E.A.j.B.F.! !   ",
"    b ,.G.f j j g g g g H.H.j j j h.h.h.k h.h.k A.k j.B.C.! !   ",
"    ;  .` b b b b b ` ` ,.I.I. .5.5.'.'.J.6.J.J.b.b.j.B.C.! !   ",
"    > i.i.5.5.5.i.i...6.j.j.j.j.K.L.v.v.v.B.B.K.b.B.B.B.F.! !   ",
"    M.i.i.i.6.i.6.6.6.j.j.j.3 L.L.l.v.v.G.C C L.B.B.N.B.F.! !   ",
"    L.G.O.O.O.O.O.j.O.L.3 v.l.e G.C C O N.N.N.Y Y Y <.<.F.! !   ",
"        ~.~.P...' , > ; > > , ' 5.Z ..P.b.3 3 L.L.L.F.Q.Q.! !   ",
"          R.R.R.S.T.U.U.T.T.T.T.S.S.R.R.V.W.W.W.X.X.Q.! !       ",
"                                                                ",
"                                                                ",
"                                                                ",
"                                                                "};
